<svg xmlns="http://www.w3.org/2000/svg" viewBox="0 0 256 256">
  <rect width="256" height="256" rx="40" fill="#1a1c24"/>
  <path d="M128 44 L188 62 L188 132 C188 174 162 202 128 216 C94 202 68 174 68 132 L68 62 Z" fill="#3a3f4b"/>
  <path d="M128 44 L188 62 L188 132 C188 174 162 202 128 216 Z" fill="#4a5160"/>
  <path d="M128 64 L172 77 L172 130 C172 162 152 184 128 196 C104 184 84 162 84 130 L84 77 Z" fill="#5d6575"/>
  <path d="M128 64 L172 77 L172 130 C172 162 152 184 128 196 Z" fill="#6d7688"/>
  <circle cx="128" cy="128" r="20" fill="#d9a441"/>
  <circle cx="128" cy="128" r="11" fill="#f0c46a"/>
</svg>
